<?xml version="1.0" encoding="UTF-8"?>
<svg xmlns="http://www.w3.org/2000/svg" xmlns:xlink="http://www.w3.org/1999/xlink" width="144px" height="144px" viewBox="0 0 144 144" version="1.1">
<g id="surface1">
<path style=" stroke:none;fill-rule:evenodd;fill:rgb(100%,60%,0%);fill-opacity:1;" d="M 89.332031 84.226562 C 80.992188 90.390625 68.867188 93.675781 58.410156 93.675781 C 43.753906 93.675781 30.617188 88.269531 20.613281 79.277344 C 19.855469 78.570312 20.515625 77.609375 21.472656 78.164062 C 32.234375 84.429688 45.523438 88.167969 59.265625 88.167969 C 68.515625 88.167969 78.71875 86.25 88.117188 82.257812 C 89.53125 81.699219 90.695312 83.21875 89.332031 84.226562 Z M 89.332031 84.226562 "/>
<path style=" stroke:none;fill-rule:evenodd;fill:rgb(100%,60%,0%);fill-opacity:1;" d="M 92.816406 80.234375 C 91.753906 78.871094 85.742188 79.578125 83.066406 79.933594 C 82.257812 80.035156 82.105469 79.328125 82.863281 78.820312 C 87.664062 75.4375 95.496094 76.445312 96.402344 77.558594 C 97.3125 78.667969 96.152344 86.550781 91.65625 90.289062 C 90.949219 90.847656 90.289062 90.542969 90.59375 89.785156 C 91.605469 87.257812 93.878906 81.652344 92.816406 80.234375 Z M 92.816406 80.234375 "/>
<path style=" stroke:none;fill-rule:evenodd;fill:rgb(0%,0%,0%);fill-opacity:1;" d="M 83.21875 55.074219 L 83.21875 51.789062 C 83.21875 51.285156 83.570312 50.980469 84.023438 50.980469 L 98.679688 50.980469 C 99.132812 50.980469 99.535156 51.335938 99.535156 51.789062 L 99.535156 54.570312 C 99.535156 55.023438 99.132812 55.628906 98.425781 56.640625 L 90.847656 67.453125 C 93.675781 67.402344 96.65625 67.804688 99.183594 69.222656 C 99.738281 69.523438 99.890625 70.03125 99.941406 70.484375 L 99.941406 73.96875 C 99.941406 74.476562 99.4375 75.03125 98.878906 74.726562 C 94.382812 72.355469 88.371094 72.101562 83.417969 74.777344 C 82.914062 75.03125 82.359375 74.527344 82.359375 74.019531 L 82.359375 70.6875 C 82.359375 70.179688 82.359375 69.273438 82.914062 68.464844 L 91.707031 55.882812 L 84.074219 55.882812 C 83.621094 55.882812 83.21875 55.527344 83.21875 55.074219 Z M 29.808594 75.4375 L 25.363281 75.4375 C 24.960938 75.386719 24.605469 75.082031 24.554688 74.679688 L 24.554688 51.839844 C 24.554688 51.386719 24.960938 51.03125 25.414062 51.03125 L 29.558594 51.03125 C 30.011719 51.03125 30.316406 51.386719 30.367188 51.789062 L 30.367188 54.769531 L 30.46875 54.769531 C 31.527344 51.890625 33.601562 50.527344 36.328125 50.527344 C 39.105469 50.527344 40.875 51.890625 42.089844 54.769531 C 43.148438 51.890625 45.625 50.527344 48.253906 50.527344 C 50.121094 50.527344 52.144531 51.285156 53.40625 53.050781 C 54.820312 54.972656 54.519531 57.75 54.519531 60.226562 L 54.519531 74.679688 C 54.519531 75.132812 54.113281 75.484375 53.660156 75.484375 L 49.261719 75.484375 C 48.808594 75.4375 48.453125 75.082031 48.453125 74.679688 L 48.453125 62.550781 C 48.453125 61.589844 48.554688 59.167969 48.355469 58.257812 C 48 56.742188 47.039062 56.285156 45.726562 56.285156 C 44.664062 56.285156 43.503906 56.992188 43.046875 58.15625 C 42.59375 59.316406 42.644531 61.238281 42.644531 62.550781 L 42.644531 74.679688 C 42.644531 75.132812 42.238281 75.484375 41.785156 75.484375 L 37.339844 75.484375 C 36.882812 75.4375 36.53125 75.082031 36.53125 74.679688 L 36.53125 62.550781 C 36.53125 60.023438 36.933594 56.234375 33.800781 56.234375 C 30.617188 56.234375 30.71875 59.875 30.71875 62.550781 L 30.71875 74.679688 C 30.667969 75.082031 30.316406 75.4375 29.808594 75.4375 Z M 112.167969 50.527344 C 118.789062 50.527344 122.375 56.183594 122.375 63.410156 C 122.375 70.382812 118.433594 75.941406 112.167969 75.941406 C 105.699219 75.941406 102.164062 70.28125 102.164062 63.207031 C 102.113281 56.085938 105.699219 50.527344 112.167969 50.527344 Z M 112.167969 55.226562 C 108.882812 55.226562 108.683594 59.722656 108.683594 62.5 C 108.683594 65.28125 108.632812 71.242188 112.117188 71.242188 C 115.554688 71.242188 115.753906 66.441406 115.753906 63.511719 C 115.753906 61.589844 115.65625 59.265625 115.097656 57.449219 C 114.59375 55.832031 113.582031 55.226562 112.167969 55.226562 Z M 130.914062 75.4375 L 126.46875 75.4375 C 126.011719 75.386719 125.660156 75.03125 125.660156 74.628906 L 125.660156 51.738281 C 125.710938 51.335938 126.0625 50.980469 126.519531 50.980469 L 130.660156 50.980469 C 131.066406 50.980469 131.367188 51.285156 131.46875 51.636719 L 131.46875 55.125 L 131.570312 55.125 C 132.832031 51.992188 134.550781 50.527344 137.632812 50.527344 C 139.605469 50.527344 141.574219 51.234375 142.839844 53.203125 C 144 55.023438 144 58.105469 144 60.328125 L 144 74.726562 C 143.949219 75.132812 143.597656 75.4375 143.140625 75.4375 L 138.695312 75.4375 C 138.289062 75.386719 137.9375 75.082031 137.886719 74.726562 L 137.886719 62.300781 C 137.886719 59.773438 138.191406 56.132812 135.105469 56.132812 C 134.046875 56.132812 133.035156 56.84375 132.53125 57.953125 C 131.925781 59.367188 131.824219 60.734375 131.824219 62.300781 L 131.824219 74.628906 C 131.773438 75.082031 131.367188 75.4375 130.914062 75.4375 Z M 71.546875 64.523438 C 71.546875 66.238281 71.597656 67.707031 70.738281 69.273438 C 70.03125 70.535156 68.917969 71.292969 67.65625 71.292969 C 65.9375 71.292969 64.925781 69.980469 64.925781 68.058594 C 64.925781 64.269531 68.3125 63.5625 71.546875 63.5625 Z M 76.042969 75.386719 C 75.738281 75.636719 75.335938 75.6875 74.980469 75.484375 C 73.515625 74.273438 73.210938 73.667969 72.402344 72.503906 C 69.980469 74.980469 68.210938 75.738281 65.078125 75.738281 C 61.339844 75.738281 58.410156 73.414062 58.410156 68.816406 C 58.410156 65.179688 60.378906 62.753906 63.15625 61.542969 C 65.582031 60.480469 68.96875 60.277344 71.546875 59.976562 L 71.546875 59.417969 C 71.546875 58.359375 71.644531 57.09375 70.988281 56.183594 C 70.433594 55.375 69.421875 55.023438 68.515625 55.023438 C 66.796875 55.023438 65.28125 55.882812 64.925781 57.699219 C 64.824219 58.105469 64.574219 58.507812 64.167969 58.507812 L 59.875 58.054688 C 59.519531 57.953125 59.117188 57.699219 59.21875 57.144531 C 60.226562 51.890625 64.925781 50.324219 69.171875 50.324219 C 71.34375 50.324219 74.171875 50.878906 75.890625 52.546875 C 78.0625 54.570312 77.859375 57.296875 77.859375 60.226562 L 77.859375 67.148438 C 77.859375 69.222656 78.71875 70.128906 79.527344 71.292969 C 79.832031 71.695312 79.882812 72.203125 79.527344 72.453125 C 78.570312 73.210938 76.953125 74.628906 76.042969 75.386719 Z M 13.1875 64.523438 C 13.1875 66.238281 13.238281 67.707031 12.378906 69.273438 C 11.671875 70.535156 10.558594 71.292969 9.296875 71.292969 C 7.578125 71.292969 6.570312 69.980469 6.570312 68.058594 C 6.570312 64.269531 9.953125 63.5625 13.1875 63.5625 Z M 17.632812 75.386719 C 17.332031 75.636719 16.925781 75.6875 16.574219 75.484375 C 15.105469 74.273438 14.804688 73.667969 13.996094 72.503906 C 11.570312 74.980469 9.800781 75.738281 6.667969 75.738281 C 2.929688 75.738281 0 73.414062 0 68.816406 C 0 65.179688 1.96875 62.753906 4.75 61.542969 C 7.175781 60.480469 10.558594 60.277344 13.136719 59.976562 L 13.136719 59.417969 C 13.136719 58.359375 13.238281 57.09375 12.582031 56.183594 C 12.023438 55.375 11.015625 55.023438 10.105469 55.023438 C 8.386719 55.023438 6.871094 55.882812 6.519531 57.699219 C 6.417969 58.105469 6.164062 58.507812 5.761719 58.507812 L 1.464844 58.054688 C 1.113281 57.953125 0.707031 57.699219 0.808594 57.144531 C 1.820312 51.890625 6.519531 50.324219 10.761719 50.324219 C 12.933594 50.324219 15.765625 50.878906 17.480469 52.546875 C 19.65625 54.570312 19.453125 57.296875 19.453125 60.226562 L 19.453125 67.148438 C 19.453125 69.222656 20.3125 70.128906 21.121094 71.292969 C 21.421875 71.695312 21.472656 72.203125 21.121094 72.453125 C 20.160156 73.210938 18.542969 74.628906 17.632812 75.386719 Z M 17.632812 75.386719 "/>
</g>
</svg>
