<?xml version="1.0" encoding="UTF-8"?>
<svg xmlns="http://www.w3.org/2000/svg" xmlns:xlink="http://www.w3.org/1999/xlink" width="144px" height="144px" viewBox="0 0 144 144" version="1.1">
<g id="surface1">
<path style=" stroke:none;fill-rule:evenodd;fill:rgb(21.176471%,27.058824%,28.235294%);fill-opacity:1;" d="M 21.722656 109.398438 L 21.722656 100.195312 C 21.722656 98.984375 22.476562 98.011719 23.730469 98.011719 L 24.078125 98.011719 C 25.328125 98.011719 26.082031 98.984375 26.082031 100.195312 L 26.082031 119.570312 C 26.082031 124.296875 23.746094 128.054688 19.679688 130.449219 C 17.816406 131.554688 15.6875 132.132812 13.523438 132.128906 L 12.65625 132.128906 C 7.929688 132.128906 4.175781 129.792969 1.777344 125.726562 C 0.671875 123.863281 0.09375 121.738281 0.0976562 119.570312 L 0.0976562 118.707031 C 0.0976562 113.980469 2.433594 110.222656 6.5 107.824219 C 8.363281 106.714844 10.492188 106.136719 12.65625 106.144531 L 13.523438 106.144531 C 16.71875 106.144531 19.433594 107.382812 21.722656 109.398438 Z M 4.457031 119.136719 C 4.457031 122.550781 6.113281 125.117188 9.101562 126.753906 C 10.3125 127.414062 11.625 127.769531 13.003906 127.769531 C 16.355469 127.769531 18.839844 126.191406 20.554688 123.351562 C 21.351562 122.03125 21.722656 120.585938 21.722656 119.050781 C 21.722656 116.089844 20.320312 113.78125 17.9375 112.066406 C 16.492188 111.027344 14.863281 110.503906 13.089844 110.503906 C 9.4375 110.503906 6.808594 112.351562 5.230469 115.628906 C 4.699219 116.734375 4.457031 117.910156 4.457031 119.136719 Z M 41.203125 106.144531 L 41.804688 106.144531 C 46.855469 106.144531 50.695312 108.59375 53.132812 113 C 54.105469 114.765625 54.625 116.691406 54.625 118.707031 L 54.625 119.570312 C 54.625 124.296875 52.296875 128.058594 48.222656 130.449219 C 46.335938 131.558594 44.25 132.128906 42.066406 132.128906 L 41.203125 132.128906 C 36.476562 132.128906 32.71875 129.792969 30.320312 125.726562 C 29.214844 123.863281 28.636719 121.738281 28.640625 119.570312 L 28.640625 118.707031 C 28.640625 113.980469 30.988281 110.234375 35.042969 107.824219 C 36.925781 106.703125 39.011719 106.144531 41.203125 106.144531 Z M 33 119.136719 C 33 122.449219 34.625 124.886719 37.425781 126.601562 C 38.738281 127.40625 40.1875 127.769531 41.722656 127.769531 C 44.996094 127.769531 47.414062 126.109375 49.097656 123.347656 C 49.902344 122.03125 50.265625 120.582031 50.265625 119.050781 C 50.265625 115.96875 48.78125 113.613281 46.246094 111.910156 C 44.855469 110.972656 43.308594 110.503906 41.632812 110.503906 C 37.980469 110.503906 35.355469 112.351562 33.777344 115.628906 C 33.242188 116.734375 33 117.910156 33 119.136719 Z M 72.746094 110.855469 C 72.085938 110.546875 70.855469 110.441406 70.144531 110.414062 C 66.503906 110.277344 63.867188 112.328125 62.320312 115.542969 C 61.789062 116.648438 61.542969 117.824219 61.542969 119.050781 C 61.542969 122.78125 63.503906 125.394531 66.835938 126.988281 C 68.054688 127.570312 69.625 127.683594 70.957031 127.683594 C 72.125 127.683594 73.78125 126.964844 74.816406 126.472656 L 75 126.386719 L 75.804688 126.386719 L 75.894531 126.40625 C 76.882812 126.609375 77.632812 127.238281 77.632812 128.304688 L 77.632812 128.738281 C 77.632812 131.390625 72.78125 132 70.933594 132.128906 C 64.402344 132.578125 59.515625 128.992188 57.65625 122.765625 C 57.332031 121.683594 57.1875 120.609375 57.1875 119.480469 L 57.1875 118.617188 C 57.1875 113.890625 59.53125 110.148438 63.585938 107.738281 C 65.46875 106.621094 67.554688 106.058594 69.746094 106.058594 L 70.609375 106.058594 C 72.933594 106.058594 75.070312 106.71875 76.988281 108.027344 L 77.148438 108.136719 L 77.246094 108.300781 C 77.453125 108.644531 77.632812 109.042969 77.632812 109.449219 L 77.632812 109.882812 C 77.632812 110.992188 76.800781 111.59375 75.796875 111.785156 L 75.710938 111.800781 L 75.453125 111.800781 C 74.804688 111.800781 73.324219 111.125 72.746094 110.855469 Z M 86.882812 113.804688 C 88.574219 112.109375 90.273438 110.417969 91.992188 108.75 C 92.472656 108.285156 94.285156 106.316406 95 106.316406 L 95.777344 106.316406 L 95.867188 106.335938 C 96.863281 106.542969 97.605469 107.171875 97.605469 108.238281 L 97.605469 108.671875 C 97.605469 109.398438 96.753906 110.246094 96.28125 110.746094 C 95.28125 111.808594 94.226562 112.832031 93.203125 113.875 L 87.9375 119.21875 C 90.203125 121.492188 92.46875 123.765625 94.71875 126.054688 C 95.339844 126.6875 95.960938 127.324219 96.574219 127.964844 C 96.792969 128.195312 97.109375 128.476562 97.292969 128.792969 C 97.488281 129.089844 97.605469 129.421875 97.605469 129.777344 L 97.605469 130.226562 L 97.582031 130.332031 C 97.335938 131.328125 96.707031 132.128906 95.605469 132.128906 L 95.257812 132.128906 C 94.535156 132.128906 93.722656 131.3125 93.226562 130.847656 C 92.210938 129.886719 91.226562 128.878906 90.230469 127.898438 L 86.882812 124.613281 L 86.882812 129.863281 C 86.882812 131.074219 86.125 132.042969 84.875 132.042969 L 84.53125 132.042969 C 83.28125 132.042969 82.523438 131.074219 82.523438 129.863281 L 82.523438 100.277344 C 82.523438 99.070312 83.28125 98.101562 84.53125 98.101562 L 84.875 98.101562 C 86.125 98.101562 86.882812 99.070312 86.882812 100.277344 Z M 141.207031 106.316406 L 141.640625 106.316406 C 142.949219 106.316406 143.820312 107.199219 143.820312 108.496094 C 143.820312 110.300781 142.09375 110.761719 140.601562 110.761719 C 138.644531 110.761719 136.777344 111.949219 135.425781 113.277344 C 133.742188 114.9375 133.007812 117.0625 133.007812 119.398438 L 133.007812 129.949219 C 133.007812 131.15625 132.253906 132.128906 131 132.128906 L 130.65625 132.128906 C 129.402344 132.128906 128.648438 131.160156 128.648438 129.949219 L 128.648438 118.789062 C 128.648438 114.507812 130.734375 111.007812 134.210938 108.554688 C 136.285156 107.089844 138.664062 106.316406 141.207031 106.316406 Z M 110.226562 127.226562 C 111.8125 127.78125 113.621094 127.703125 115.25 127.417969 C 116.082031 127.066406 118.210938 126.136719 118.992188 126.273438 L 119.117188 126.292969 L 119.230469 126.347656 C 119.707031 126.582031 120.164062 126.910156 120.40625 127.394531 C 120.976562 128.535156 120.703125 129.679688 119.582031 130.328125 L 119.210938 130.542969 C 115.074219 132.929688 110.679688 132.601562 106.554688 130.371094 C 104.585938 129.304688 103.078125 127.726562 101.964844 125.796875 L 101.707031 125.347656 C 99.050781 120.75 99.410156 115.914062 102.402344 111.542969 C 103.4375 110.03125 104.789062 108.863281 106.367188 107.953125 L 106.964844 107.605469 C 110.859375 105.359375 115.03125 105.515625 119.03125 107.488281 C 121.179688 108.546875 122.921875 110.128906 124.121094 112.207031 L 124.339844 112.582031 C 125.210938 114.09375 124.082031 115.410156 122.914062 116.308594 C 121.5625 117.355469 120.195312 118.609375 118.898438 119.730469 C 116.007812 122.226562 113.117188 124.730469 110.226562 127.226562 Z M 106.484375 124.597656 C 109.71875 121.824219 112.953125 119.050781 116.179688 116.265625 C 117.28125 115.3125 118.492188 114.328125 119.585938 113.328125 C 118.707031 112.222656 117.242188 111.425781 115.996094 110.949219 C 113.480469 109.992188 111.003906 110.3125 108.699219 111.644531 C 105.679688 113.386719 104.394531 116.160156 104.507812 119.613281 C 104.550781 120.976562 104.917969 122.285156 105.640625 123.441406 C 105.894531 123.851562 106.175781 124.234375 106.484375 124.597656 Z M 82.960938 37.253906 L 95.824219 37.253906 L 95.824219 50.402344 L 102.328125 50.402344 C 105.332031 50.402344 108.417969 49.867188 111.261719 48.90625 C 112.660156 48.429688 114.230469 47.773438 115.609375 46.941406 C 113.792969 44.570312 112.867188 41.578125 112.59375 38.628906 C 112.222656 34.613281 113.03125 29.390625 115.746094 26.25 L 117.101562 24.6875 L 118.710938 25.984375 C 122.765625 29.242188 126.179688 33.796875 126.78125 38.984375 C 131.664062 37.550781 137.398438 37.890625 141.703125 40.375 L 143.46875 41.394531 L 142.539062 43.207031 C 138.898438 50.3125 131.289062 52.515625 123.84375 52.125 C 112.710938 79.863281 88.464844 92.992188 59.070312 92.992188 C 43.882812 92.992188 29.949219 87.316406 22.015625 73.839844 L 21.882812 73.621094 L 20.730469 71.269531 C 18.046875 65.339844 17.15625 58.839844 17.761719 52.347656 L 17.941406 50.402344 L 28.941406 50.402344 L 28.941406 37.253906 L 41.800781 37.253906 L 41.800781 24.394531 L 67.527344 24.394531 L 67.527344 11.53125 L 82.960938 11.53125 L 82.960938 37.253906 "/>
<path style=" stroke:none;fill-rule:evenodd;fill:rgb(13.333333%,62.745098%,78.431373%);fill-opacity:1;" d="M 124.632812 42.121094 C 125.496094 35.417969 120.480469 30.152344 117.367188 27.652344 C 113.785156 31.796875 113.226562 42.660156 118.851562 47.234375 C 115.710938 50.019531 109.097656 52.546875 102.328125 52.546875 L 19.894531 52.546875 C 19.238281 59.617188 20.476562 66.125 23.3125 71.699219 L 24.25 73.414062 C 24.84375 74.421875 25.492188 75.394531 26.195312 76.328125 C 29.582031 76.546875 32.707031 76.621094 35.566406 76.558594 C 41.183594 76.433594 45.769531 75.769531 49.242188 74.566406 C 49.753906 74.410156 50.296875 74.683594 50.472656 75.1875 C 50.648438 75.695312 50.390625 76.246094 49.890625 76.4375 C 49.429688 76.597656 48.949219 76.75 48.449219 76.890625 C 45.714844 77.671875 42.78125 78.199219 38.996094 78.429688 C 39.21875 78.433594 38.761719 78.464844 38.761719 78.464844 C 38.632812 78.472656 38.46875 78.492188 38.339844 78.5 C 36.851562 78.582031 35.242188 78.601562 33.597656 78.601562 C 31.800781 78.601562 30.03125 78.566406 28.050781 78.464844 L 28 78.5 C 34.871094 86.21875 45.609375 90.847656 59.070312 90.847656 C 87.558594 90.847656 111.726562 78.21875 122.425781 49.867188 C 130.015625 50.644531 137.3125 48.710938 140.632812 42.230469 C 135.347656 39.179688 128.546875 40.152344 124.632812 42.121094 "/>
<path style=" stroke:none;fill-rule:evenodd;fill:rgb(21.568627%,69.411765%,85.098039%);fill-opacity:1;" d="M 124.632812 42.121094 C 125.496094 35.417969 120.480469 30.152344 117.367188 27.652344 C 113.785156 31.796875 113.226562 42.660156 118.851562 47.234375 C 115.710938 50.019531 109.097656 52.546875 102.328125 52.546875 L 24.777344 52.546875 C 24.441406 63.371094 28.457031 71.589844 35.566406 76.558594 C 41.183594 76.433594 45.769531 75.769531 49.242188 74.566406 C 49.753906 74.410156 50.296875 74.683594 50.472656 75.1875 C 50.648438 75.695312 50.390625 76.246094 49.890625 76.4375 C 49.429688 76.597656 48.949219 76.75 48.449219 76.890625 C 45.714844 77.671875 42.527344 78.265625 38.742188 78.5 C 38.742188 78.5 38.652344 78.410156 38.652344 78.410156 C 48.347656 83.386719 62.40625 83.367188 78.523438 77.175781 C 96.597656 70.230469 113.414062 57.003906 125.148438 41.875 C 124.972656 41.953125 124.800781 42.035156 124.632812 42.121094 "/>
<path style=" stroke:none;fill-rule:evenodd;fill:rgb(10.588235%,50.588235%,64.705882%);fill-opacity:1;" d="M 20.050781 61.136719 C 20.5625 64.921875 21.671875 68.46875 23.3125 71.699219 L 24.25 73.414062 C 24.84375 74.421875 25.492188 75.394531 26.195312 76.328125 C 29.582031 76.546875 32.707031 76.621094 35.566406 76.558594 C 41.183594 76.433594 45.769531 75.769531 49.242188 74.566406 C 49.753906 74.410156 50.296875 74.683594 50.472656 75.1875 C 50.648438 75.695312 50.390625 76.246094 49.890625 76.4375 C 49.429688 76.597656 48.949219 76.75 48.449219 76.890625 C 45.714844 77.671875 42.542969 78.230469 38.761719 78.464844 C 38.628906 78.472656 38.402344 78.476562 38.273438 78.480469 C 36.785156 78.566406 35.191406 78.617188 33.546875 78.617188 C 31.75 78.617188 29.914062 78.582031 27.933594 78.480469 C 34.804688 86.203125 45.609375 90.847656 59.070312 90.847656 C 83.460938 90.847656 104.679688 81.589844 116.996094 61.136719 L 20.050781 61.136719 "/>
<path style=" stroke:none;fill-rule:evenodd;fill:rgb(11.372549%,56.862745%,70.588235%);fill-opacity:1;" d="M 25.519531 61.136719 C 26.976562 67.785156 30.480469 73.003906 35.566406 76.558594 C 41.183594 76.433594 45.769531 75.769531 49.242188 74.566406 C 49.753906 74.410156 50.296875 74.683594 50.472656 75.1875 C 50.648438 75.695312 50.390625 76.246094 49.890625 76.4375 C 49.429688 76.597656 48.949219 76.75 48.449219 76.890625 C 45.714844 77.671875 42.476562 78.230469 38.691406 78.464844 C 48.386719 83.4375 62.40625 83.367188 78.523438 77.175781 C 88.273438 73.429688 97.65625 67.851562 106.078125 61.136719 L 25.519531 61.136719 "/>
<path style=" stroke:none;fill-rule:evenodd;fill:rgb(13.72549%,63.921569%,76.078431%);fill-opacity:1;" d="M 31.082031 39.398438 L 42.230469 39.398438 L 42.230469 50.546875 L 31.082031 50.546875 Z M 32.011719 40.328125 L 32.890625 40.328125 L 32.890625 49.617188 L 32.011719 49.617188 Z M 33.667969 40.328125 L 34.582031 40.328125 L 34.582031 49.617188 L 33.667969 49.617188 Z M 35.355469 40.328125 L 36.269531 40.328125 L 36.269531 49.617188 L 35.355469 49.617188 Z M 37.042969 40.328125 L 37.960938 40.328125 L 37.960938 49.617188 L 37.042969 49.617188 Z M 38.734375 40.328125 L 39.648438 40.328125 L 39.648438 49.617188 L 38.734375 49.617188 Z M 40.421875 40.328125 L 41.300781 40.328125 L 41.300781 49.617188 L 40.421875 49.617188 Z M 43.945312 26.535156 L 55.09375 26.535156 L 55.09375 37.683594 L 43.945312 37.683594 Z M 44.875 27.464844 L 45.753906 27.464844 L 45.753906 36.753906 L 44.875 36.753906 Z M 46.527344 27.464844 L 47.445312 27.464844 L 47.445312 36.753906 L 46.53125 36.753906 L 46.53125 27.464844 Z M 48.21875 27.464844 L 49.132812 27.464844 L 49.132812 36.753906 L 48.21875 36.753906 Z M 49.90625 27.464844 L 50.820312 27.464844 L 50.820312 36.753906 L 49.90625 36.753906 Z M 51.597656 27.464844 L 52.511719 27.464844 L 52.511719 36.753906 L 51.597656 36.753906 Z M 53.285156 27.464844 L 54.164062 27.464844 L 54.164062 36.753906 L 53.285156 36.753906 Z M 53.285156 27.464844 "/>
<path style=" stroke:none;fill-rule:evenodd;fill:rgb(20.392157%,73.333333%,87.058824%);fill-opacity:1;" d="M 43.945312 39.398438 L 55.09375 39.398438 L 55.09375 50.546875 L 43.945312 50.546875 Z M 44.875 40.328125 L 45.753906 40.328125 L 45.753906 49.617188 L 44.875 49.617188 Z M 46.527344 40.328125 L 47.445312 40.328125 L 47.445312 49.617188 L 46.53125 49.617188 L 46.53125 40.328125 Z M 48.21875 40.328125 L 49.132812 40.328125 L 49.132812 49.617188 L 48.21875 49.617188 Z M 49.90625 40.328125 L 50.820312 40.328125 L 50.820312 49.617188 L 49.90625 49.617188 Z M 51.597656 40.328125 L 52.511719 40.328125 L 52.511719 49.617188 L 51.597656 49.617188 Z M 53.285156 40.328125 L 54.164062 40.328125 L 54.164062 49.617188 L 53.285156 49.617188 Z M 53.285156 40.328125 "/>
<path style=" stroke:none;fill-rule:evenodd;fill:rgb(13.72549%,63.921569%,76.078431%);fill-opacity:1;" d="M 56.808594 39.398438 L 67.957031 39.398438 L 67.957031 50.546875 L 56.808594 50.546875 Z M 57.738281 40.328125 L 58.617188 40.328125 L 58.617188 49.617188 L 57.738281 49.617188 Z M 59.390625 40.328125 L 60.304688 40.328125 L 60.304688 49.617188 L 59.390625 49.617188 Z M 61.082031 40.328125 L 61.996094 40.328125 L 61.996094 49.617188 L 61.082031 49.617188 Z M 62.769531 40.328125 L 63.683594 40.328125 L 63.683594 49.617188 L 62.769531 49.617188 Z M 64.457031 40.328125 L 65.375 40.328125 L 65.375 49.617188 L 64.457031 49.617188 Z M 66.148438 40.328125 L 67.027344 40.328125 L 67.027344 49.617188 L 66.148438 49.617188 Z M 66.148438 40.328125 "/>
<path style=" stroke:none;fill-rule:evenodd;fill:rgb(20.392157%,73.333333%,87.058824%);fill-opacity:1;" d="M 56.808594 26.535156 L 67.957031 26.535156 L 67.957031 37.683594 L 56.808594 37.683594 Z M 57.738281 27.464844 L 58.617188 27.464844 L 58.617188 36.753906 L 57.738281 36.753906 Z M 59.390625 27.464844 L 60.304688 27.464844 L 60.304688 36.753906 L 59.390625 36.753906 Z M 61.082031 27.464844 L 61.996094 27.464844 L 61.996094 36.753906 L 61.082031 36.753906 Z M 62.769531 27.464844 L 63.683594 27.464844 L 63.683594 36.753906 L 62.769531 36.753906 Z M 64.457031 27.464844 L 65.375 27.464844 L 65.375 36.753906 L 64.457031 36.753906 Z M 66.148438 27.464844 L 67.027344 27.464844 L 67.027344 36.753906 L 66.148438 36.753906 Z M 69.671875 39.398438 L 80.816406 39.398438 L 80.816406 50.546875 L 69.671875 50.546875 Z M 70.601562 40.328125 L 71.480469 40.328125 L 71.480469 49.617188 L 70.601562 49.617188 Z M 72.253906 40.328125 L 73.167969 40.328125 L 73.167969 49.617188 L 72.253906 49.617188 Z M 73.941406 40.328125 L 74.855469 40.328125 L 74.855469 49.617188 L 73.941406 49.617188 Z M 75.632812 40.328125 L 76.546875 40.328125 L 76.546875 49.617188 L 75.632812 49.617188 Z M 77.320312 40.328125 L 78.234375 40.328125 L 78.234375 49.617188 L 77.320312 49.617188 Z M 79.011719 40.328125 L 79.890625 40.328125 L 79.890625 49.617188 L 79.011719 49.617188 Z M 79.011719 40.328125 "/>
<path style=" stroke:none;fill-rule:evenodd;fill:rgb(13.72549%,63.921569%,76.078431%);fill-opacity:1;" d="M 69.671875 26.535156 L 80.816406 26.535156 L 80.816406 37.683594 L 69.671875 37.683594 Z M 70.601562 27.464844 L 71.480469 27.464844 L 71.480469 36.753906 L 70.601562 36.753906 Z M 72.253906 27.464844 L 73.167969 27.464844 L 73.167969 36.753906 L 72.253906 36.753906 Z M 73.941406 27.464844 L 74.855469 27.464844 L 74.855469 36.753906 L 73.941406 36.753906 Z M 75.632812 27.464844 L 76.546875 27.464844 L 76.546875 36.753906 L 75.632812 36.753906 Z M 77.320312 27.464844 L 78.234375 27.464844 L 78.234375 36.753906 L 77.320312 36.753906 Z M 79.011719 27.464844 L 79.890625 27.464844 L 79.890625 36.753906 L 79.011719 36.753906 Z M 79.011719 27.464844 "/>
<path style=" stroke:none;fill-rule:evenodd;fill:rgb(20.392157%,73.333333%,87.058824%);fill-opacity:1;" d="M 69.671875 13.675781 L 80.816406 13.675781 L 80.816406 24.824219 L 69.671875 24.824219 Z M 70.601562 14.601562 L 71.480469 14.601562 L 71.480469 23.894531 L 70.601562 23.894531 Z M 72.253906 14.601562 L 73.167969 14.601562 L 73.167969 23.894531 L 72.253906 23.894531 Z M 73.941406 14.601562 L 74.855469 14.601562 L 74.855469 23.894531 L 73.941406 23.894531 Z M 75.632812 14.601562 L 76.546875 14.601562 L 76.546875 23.894531 L 75.632812 23.894531 Z M 77.320312 14.601562 L 78.234375 14.601562 L 78.234375 23.894531 L 77.320312 23.894531 Z M 79.011719 14.601562 L 79.890625 14.601562 L 79.890625 23.894531 L 79.011719 23.894531 Z M 79.011719 14.601562 "/>
<path style=" stroke:none;fill-rule:evenodd;fill:rgb(13.72549%,63.921569%,76.078431%);fill-opacity:1;" d="M 82.53125 39.398438 L 93.679688 39.398438 L 93.679688 50.546875 L 82.53125 50.546875 Z M 83.460938 40.328125 L 84.339844 40.328125 L 84.339844 49.617188 L 83.460938 49.617188 Z M 85.113281 40.328125 L 86.03125 40.328125 L 86.03125 49.617188 L 85.117188 49.617188 L 85.117188 40.328125 Z M 86.804688 40.328125 L 87.71875 40.328125 L 87.71875 49.617188 L 86.804688 49.617188 Z M 88.492188 40.328125 L 89.410156 40.328125 L 89.410156 49.617188 L 88.492188 49.617188 Z M 90.183594 40.328125 L 91.097656 40.328125 L 91.097656 49.617188 L 90.183594 49.617188 Z M 91.871094 40.328125 L 92.75 40.328125 L 92.75 49.617188 L 91.871094 49.617188 Z M 91.871094 40.328125 "/>
<path style=" stroke:none;fill-rule:evenodd;fill:rgb(82.745098%,92.54902%,92.54902%);fill-opacity:1;" d="M 54.394531 68.621094 C 55.503906 68.605469 56.535156 69.1875 57.09375 70.148438 C 57.652344 71.105469 57.652344 72.289062 57.09375 73.246094 C 56.535156 74.203125 55.503906 74.785156 54.394531 74.769531 C 52.710938 74.75 51.359375 73.378906 51.359375 71.695312 C 51.363281 70.011719 52.714844 68.644531 54.394531 68.621094 "/>
<path style=" stroke:none;fill-rule:evenodd;fill:rgb(21.176471%,27.058824%,28.235294%);fill-opacity:1;" d="M 54.394531 69.492188 C 54.675781 69.492188 54.945312 69.546875 55.191406 69.640625 C 54.84375 69.847656 54.671875 70.257812 54.777344 70.652344 C 54.882812 71.042969 55.234375 71.316406 55.640625 71.316406 C 55.980469 71.316406 56.277344 71.128906 56.429688 70.851562 C 56.800781 71.746094 56.542969 72.78125 55.792969 73.398438 C 55.046875 74.011719 53.980469 74.066406 53.175781 73.527344 C 52.367188 72.988281 52.007812 71.984375 52.289062 71.058594 C 52.570312 70.128906 53.425781 69.492188 54.394531 69.492188 M 0 62.246094 L 143.058594 62.246094 C 139.945312 61.457031 133.203125 60.390625 134.316406 56.308594 C 128.652344 62.863281 114.992188 60.90625 111.542969 57.675781 C 107.707031 63.242188 85.359375 61.125 83.800781 56.789062 C 78.984375 62.4375 64.074219 62.4375 59.261719 56.789062 C 57.703125 61.125 35.355469 63.242188 31.515625 57.671875 C 28.066406 60.90625 14.410156 62.863281 8.746094 56.308594 C 9.855469 60.390625 3.117188 61.457031 0 62.246094 "/>
<path style=" stroke:none;fill-rule:evenodd;fill:rgb(74.117647%,85.098039%,84.313725%);fill-opacity:1;" d="M 62.570312 90.78125 C 54.953125 87.167969 50.773438 82.253906 48.449219 76.890625 C 45.621094 77.699219 42.21875 78.214844 38.265625 78.4375 C 36.777344 78.519531 35.214844 78.5625 33.570312 78.5625 C 31.675781 78.5625 29.679688 78.507812 27.582031 78.394531 C 34.570312 85.375 43.160156 90.75 59.070312 90.847656 C 60.246094 90.847656 61.410156 90.824219 62.570312 90.78125 "/>
<path style=" stroke:none;fill-rule:evenodd;fill:rgb(82.745098%,92.54902%,92.54902%);fill-opacity:1;" d="M 51.277344 81.839844 C 50.222656 80.410156 49.203125 78.613281 48.449219 76.890625 C 45.621094 77.699219 42.21875 78.214844 38.265625 78.4375 C 40.980469 79.910156 44.863281 81.277344 51.277344 81.839844 "/>
</g>
</svg>
