<?xml version="1.0" encoding="UTF-8"?>
<svg xmlns="http://www.w3.org/2000/svg" xmlns:xlink="http://www.w3.org/1999/xlink" width="130px" height="44px" viewBox="0 0 130 44" version="1.1">
<g id="surface1">
<path style=" stroke:none;fill-rule:nonzero;fill:rgb(91.764706%,26.27451%,20.784314%);fill-opacity:1;" d="M 55.320312 22.5625 C 55.320312 28.671875 50.546875 33.171875 44.6875 33.171875 C 38.828125 33.171875 34.054688 28.671875 34.054688 22.5625 C 34.054688 16.414062 38.828125 11.957031 44.6875 11.957031 C 50.546875 11.957031 55.320312 16.414062 55.320312 22.5625 Z M 50.667969 22.5625 C 50.667969 18.746094 47.898438 16.136719 44.6875 16.136719 C 41.476562 16.136719 38.707031 18.746094 38.707031 22.5625 C 38.707031 26.34375 41.476562 28.992188 44.6875 28.992188 C 47.898438 28.992188 50.667969 26.335938 50.667969 22.5625 Z M 50.667969 22.5625 "/>
<path style=" stroke:none;fill-rule:nonzero;fill:rgb(98.431373%,73.72549%,1.960784%);fill-opacity:1;" d="M 78.261719 22.5625 C 78.261719 28.671875 73.488281 33.171875 67.628906 33.171875 C 61.769531 33.171875 56.996094 28.671875 56.996094 22.5625 C 56.996094 16.417969 61.769531 11.957031 67.628906 11.957031 C 73.488281 11.957031 78.261719 16.414062 78.261719 22.5625 Z M 73.609375 22.5625 C 73.609375 18.746094 70.839844 16.136719 67.628906 16.136719 C 64.417969 16.136719 61.648438 18.746094 61.648438 22.5625 C 61.648438 26.34375 64.417969 28.992188 67.628906 28.992188 C 70.839844 28.992188 73.609375 26.335938 73.609375 22.5625 Z M 73.609375 22.5625 "/>
<path style=" stroke:none;fill-rule:nonzero;fill:rgb(25.882353%,52.156863%,95.686275%);fill-opacity:1;" d="M 100.25 12.597656 L 100.25 31.640625 C 100.25 39.476562 95.632812 42.675781 90.171875 42.675781 C 85.035156 42.675781 81.941406 39.238281 80.777344 36.425781 L 84.828125 34.734375 C 85.550781 36.460938 87.320312 38.5 90.167969 38.5 C 93.664062 38.5 95.828125 36.34375 95.828125 32.28125 L 95.828125 30.757812 L 95.664062 30.757812 C 94.621094 32.042969 92.617188 33.167969 90.082031 33.167969 C 84.78125 33.167969 79.925781 28.546875 79.925781 22.601562 C 79.925781 16.613281 84.78125 11.957031 90.082031 11.957031 C 92.609375 11.957031 94.617188 13.082031 95.664062 14.328125 L 95.828125 14.328125 L 95.828125 12.601562 L 100.25 12.601562 Z M 96.15625 22.601562 C 96.15625 18.867188 93.667969 16.136719 90.5 16.136719 C 87.285156 16.136719 84.59375 18.867188 84.59375 22.601562 C 84.59375 26.300781 87.285156 28.992188 90.5 28.992188 C 93.667969 28.992188 96.15625 26.300781 96.15625 22.601562 Z M 96.15625 22.601562 "/>
<path style=" stroke:none;fill-rule:nonzero;fill:rgb(20.392157%,65.882353%,32.54902%);fill-opacity:1;" d="M 107.535156 1.433594 L 107.535156 32.523438 L 102.996094 32.523438 L 102.996094 1.433594 Z M 107.535156 1.433594 "/>
<path style=" stroke:none;fill-rule:nonzero;fill:rgb(91.764706%,26.27451%,20.784314%);fill-opacity:1;" d="M 125.230469 26.054688 L 128.84375 28.464844 C 127.675781 30.191406 124.867188 33.167969 120.011719 33.167969 C 113.988281 33.167969 109.492188 28.507812 109.492188 22.558594 C 109.492188 16.25 114.027344 11.953125 119.488281 11.953125 C 124.992188 11.953125 127.683594 16.332031 128.5625 18.699219 L 129.042969 19.90625 L 114.875 25.777344 C 115.957031 27.90625 117.644531 28.992188 120.011719 28.992188 C 122.382812 28.992188 124.027344 27.824219 125.230469 26.054688 Z M 114.109375 22.238281 L 123.582031 18.304688 C 123.058594 16.976562 121.492188 16.054688 119.648438 16.054688 C 117.28125 16.054688 113.988281 18.144531 114.109375 22.238281 Z M 114.109375 22.238281 "/>
<path style=" stroke:none;fill-rule:nonzero;fill:rgb(25.882353%,52.156863%,95.686275%);fill-opacity:1;" d="M 16.867188 19.804688 L 16.867188 15.304688 L 32.023438 15.304688 C 32.171875 16.089844 32.246094 17.015625 32.246094 18.019531 C 32.246094 21.398438 31.324219 25.574219 28.351562 28.546875 C 25.460938 31.558594 21.765625 33.167969 16.871094 33.167969 C 7.800781 33.167969 0.171875 25.773438 0.171875 16.695312 C 0.171875 7.617188 7.800781 0.226562 16.871094 0.226562 C 21.890625 0.226562 25.464844 2.195312 28.152344 4.761719 L 24.976562 7.9375 C 23.050781 6.132812 20.441406 4.726562 16.867188 4.726562 C 10.242188 4.726562 5.0625 10.066406 5.0625 16.695312 C 5.0625 23.324219 10.242188 28.667969 16.867188 28.667969 C 21.164062 28.667969 23.609375 26.941406 25.179688 25.371094 C 26.449219 24.097656 27.285156 22.28125 27.617188 19.800781 Z M 16.867188 19.804688 "/>
</g>
</svg>
