<?xml version="1.0" encoding="UTF-8"?>
<svg xmlns="http://www.w3.org/2000/svg" xmlns:xlink="http://www.w3.org/1999/xlink" width="144px" height="144px" viewBox="0 0 144 144" version="1.1">
<g id="surface1">
<path style=" stroke:none;fill-rule:nonzero;fill:rgb(43.921569%,42.745098%,43.137255%);fill-opacity:1;" d="M 143.964844 70.433594 L 143.964844 67.902344 L 140.820312 67.902344 L 140.820312 63.96875 L 140.714844 64 L 137.761719 64.902344 L 137.703125 64.921875 L 137.703125 67.902344 L 133.042969 67.902344 L 133.042969 66.242188 C 133.042969 65.46875 133.214844 64.875 133.554688 64.480469 C 133.894531 64.089844 134.378906 63.894531 134.996094 63.894531 C 135.441406 63.894531 135.902344 63.996094 136.363281 64.203125 L 136.480469 64.257812 L 136.480469 61.589844 L 136.425781 61.570312 C 135.992188 61.414062 135.40625 61.335938 134.679688 61.335938 C 133.761719 61.335938 132.929688 61.535156 132.203125 61.929688 C 131.472656 62.328125 130.902344 62.894531 130.5 63.613281 C 130.101562 64.328125 129.898438 65.160156 129.898438 66.078125 L 129.898438 67.902344 L 127.710938 67.902344 L 127.710938 70.433594 L 129.898438 70.433594 L 129.898438 81.101562 L 133.042969 81.101562 L 133.042969 70.433594 L 137.703125 70.433594 L 137.703125 77.214844 C 137.703125 80.003906 139.019531 81.417969 141.617188 81.417969 C 142.042969 81.417969 142.492188 81.371094 142.953125 81.273438 C 143.417969 81.171875 143.734375 81.070312 143.921875 80.964844 L 143.964844 80.9375 L 143.964844 78.382812 L 143.835938 78.46875 C 143.667969 78.582031 143.453125 78.675781 143.203125 78.742188 C 142.953125 78.8125 142.746094 78.851562 142.582031 78.851562 C 141.976562 78.851562 141.527344 78.6875 141.246094 78.363281 C 140.964844 78.035156 140.820312 77.464844 140.820312 76.667969 L 140.820312 70.433594 Z M 120.691406 78.851562 C 119.550781 78.851562 118.652344 78.472656 118.019531 77.726562 C 117.378906 76.976562 117.058594 75.910156 117.058594 74.554688 C 117.058594 73.152344 117.378906 72.058594 118.019531 71.296875 C 118.652344 70.539062 119.542969 70.15625 120.667969 70.15625 C 121.757812 70.15625 122.625 70.523438 123.246094 71.246094 C 123.871094 71.976562 124.1875 73.0625 124.1875 74.476562 C 124.1875 75.910156 123.886719 77.011719 123.300781 77.746094 C 122.71875 78.480469 121.839844 78.851562 120.691406 78.851562 Z M 120.832031 67.585938 C 118.65625 67.585938 116.925781 68.222656 115.695312 69.480469 C 114.460938 70.738281 113.839844 72.480469 113.839844 74.65625 C 113.839844 76.722656 114.449219 78.382812 115.648438 79.59375 C 116.851562 80.804688 118.488281 81.417969 120.511719 81.417969 C 122.621094 81.417969 124.316406 80.773438 125.550781 79.496094 C 126.78125 78.222656 127.40625 76.5 127.40625 74.375 C 127.40625 72.277344 126.820312 70.601562 125.664062 69.398438 C 124.507812 68.195312 122.882812 67.585938 120.832031 67.585938 Z M 108.769531 67.585938 C 107.289062 67.585938 106.066406 67.964844 105.128906 68.710938 C 104.1875 69.460938 103.710938 70.445312 103.710938 71.640625 C 103.710938 72.257812 103.816406 72.808594 104.019531 73.277344 C 104.222656 73.742188 104.539062 74.15625 104.957031 74.503906 C 105.375 74.84375 106.015625 75.207031 106.867188 75.570312 C 107.582031 75.867188 108.117188 76.113281 108.457031 76.3125 C 108.789062 76.503906 109.023438 76.695312 109.15625 76.886719 C 109.285156 77.070312 109.351562 77.320312 109.351562 77.632812 C 109.351562 78.519531 108.6875 78.953125 107.320312 78.953125 C 106.8125 78.953125 106.234375 78.847656 105.601562 78.636719 C 104.96875 78.429688 104.375 78.128906 103.84375 77.746094 L 103.710938 77.652344 L 103.710938 80.675781 L 103.761719 80.699219 C 104.203125 80.90625 104.765625 81.078125 105.425781 81.214844 C 106.085938 81.351562 106.683594 81.417969 107.207031 81.417969 C 108.8125 81.417969 110.105469 81.039062 111.050781 80.289062 C 112 79.53125 112.480469 78.523438 112.480469 77.289062 C 112.480469 76.402344 112.222656 75.636719 111.710938 75.023438 C 111.203125 74.414062 110.324219 73.851562 109.09375 73.355469 C 108.117188 72.964844 107.488281 72.636719 107.230469 72.386719 C 106.980469 72.144531 106.855469 71.804688 106.855469 71.371094 C 106.855469 70.988281 107.011719 70.679688 107.332031 70.429688 C 107.65625 70.179688 108.105469 70.054688 108.667969 70.054688 C 109.191406 70.054688 109.730469 70.136719 110.261719 70.296875 C 110.792969 70.460938 111.261719 70.675781 111.652344 70.941406 L 111.78125 71.03125 L 111.78125 68.160156 L 111.730469 68.140625 C 111.371094 67.984375 110.894531 67.851562 110.320312 67.746094 C 109.746094 67.640625 109.222656 67.585938 108.769531 67.585938 Z M 95.519531 78.851562 C 94.378906 78.851562 93.480469 78.472656 92.84375 77.726562 C 92.207031 76.976562 91.882812 75.910156 91.882812 74.554688 C 91.882812 73.152344 92.207031 72.058594 92.847656 71.296875 C 93.480469 70.539062 94.371094 70.15625 95.492188 70.15625 C 96.582031 70.15625 97.449219 70.523438 98.070312 71.246094 C 98.695312 71.976562 99.011719 73.0625 99.011719 74.476562 C 99.011719 75.910156 98.714844 77.011719 98.128906 77.746094 C 97.542969 78.480469 96.667969 78.851562 95.519531 78.851562 Z M 95.660156 67.585938 C 93.480469 67.585938 91.753906 68.222656 90.523438 69.480469 C 89.289062 70.738281 88.664062 72.480469 88.664062 74.65625 C 88.664062 76.722656 89.273438 78.382812 90.476562 79.59375 C 91.679688 80.804688 93.316406 81.417969 95.339844 81.417969 C 97.449219 81.417969 99.144531 80.773438 100.375 79.496094 C 101.609375 78.222656 102.234375 76.5 102.234375 74.375 C 102.234375 72.277344 101.648438 70.601562 100.492188 69.398438 C 99.335938 68.195312 97.707031 67.585938 95.660156 67.585938 Z M 83.894531 70.1875 L 83.894531 67.902344 L 80.789062 67.902344 L 80.789062 81.101562 L 83.894531 81.101562 L 83.894531 74.351562 C 83.894531 73.203125 84.15625 72.257812 84.667969 71.546875 C 85.175781 70.84375 85.851562 70.484375 86.675781 70.484375 C 86.957031 70.484375 87.269531 70.53125 87.609375 70.625 C 87.945312 70.714844 88.191406 70.8125 88.332031 70.917969 L 88.464844 71.011719 L 88.464844 67.878906 L 88.414062 67.859375 C 88.125 67.734375 87.714844 67.675781 87.199219 67.675781 C 86.417969 67.675781 85.71875 67.925781 85.121094 68.417969 C 84.597656 68.851562 84.21875 69.445312 83.925781 70.1875 Z M 75.230469 67.585938 C 73.804688 67.585938 72.535156 67.890625 71.453125 68.492188 C 70.371094 69.097656 69.535156 69.957031 68.964844 71.054688 C 68.398438 72.144531 68.109375 73.421875 68.109375 74.847656 C 68.109375 76.09375 68.390625 77.238281 68.941406 78.246094 C 69.492188 79.257812 70.273438 80.046875 71.265625 80.59375 C 72.253906 81.140625 73.394531 81.417969 74.65625 81.417969 C 76.132812 81.417969 77.394531 81.125 78.402344 80.542969 L 78.445312 80.519531 L 78.445312 77.675781 L 78.3125 77.769531 C 77.855469 78.105469 77.34375 78.371094 76.792969 78.5625 C 76.246094 78.753906 75.746094 78.851562 75.308594 78.851562 C 74.089844 78.851562 73.109375 78.46875 72.402344 77.71875 C 71.691406 76.964844 71.328125 75.90625 71.328125 74.578125 C 71.328125 73.242188 71.707031 72.15625 72.445312 71.355469 C 73.1875 70.558594 74.164062 70.15625 75.359375 70.15625 C 76.378906 70.15625 77.375 70.5 78.3125 71.183594 L 78.445312 71.277344 L 78.445312 68.28125 L 78.402344 68.257812 C 78.046875 68.058594 77.566406 67.894531 76.964844 67.773438 C 76.367188 67.648438 75.785156 67.585938 75.230469 67.585938 Z M 65.972656 67.902344 L 62.867188 67.902344 L 62.867188 81.101562 L 65.972656 81.101562 Z M 64.453125 62.28125 C 63.941406 62.28125 63.496094 62.453125 63.128906 62.800781 C 62.761719 63.144531 62.574219 63.582031 62.574219 64.09375 C 62.574219 64.601562 62.757812 65.027344 63.121094 65.363281 C 63.484375 65.699219 63.929688 65.867188 64.453125 65.867188 C 64.972656 65.867188 65.417969 65.699219 65.785156 65.363281 C 66.15625 65.027344 66.339844 64.601562 66.339844 64.09375 C 66.339844 63.597656 66.160156 63.167969 65.800781 62.8125 C 65.441406 62.460938 64.988281 62.28125 64.453125 62.28125 Z M 56.707031 66.929688 L 56.707031 81.101562 L 59.875 81.101562 L 59.875 62.683594 L 55.488281 62.683594 L 49.914062 76.363281 L 44.507812 62.683594 L 39.941406 62.683594 L 39.941406 81.101562 L 42.917969 81.101562 L 42.917969 66.929688 L 43.023438 66.929688 L 48.734375 81.101562 L 50.980469 81.101562 L 56.601562 66.929688 Z M 56.707031 66.929688 "/>
<path style=" stroke:none;fill-rule:nonzero;fill:rgb(94.509804%,31.764706%,10.588235%);fill-opacity:1;" d="M 14.605469 71.136719 L 0 71.136719 L 0 56.53125 L 14.605469 56.53125 Z M 14.605469 71.136719 "/>
<path style=" stroke:none;fill-rule:nonzero;fill:rgb(50.196078%,80%,15.686275%);fill-opacity:1;" d="M 30.730469 71.136719 L 16.125 71.136719 L 16.125 56.53125 L 30.730469 56.53125 Z M 30.730469 71.136719 "/>
<path style=" stroke:none;fill-rule:nonzero;fill:rgb(0%,67.843137%,93.72549%);fill-opacity:1;" d="M 14.605469 87.265625 L 0 87.265625 L 0 72.660156 L 14.605469 72.660156 Z M 14.605469 87.265625 "/>
<path style=" stroke:none;fill-rule:nonzero;fill:rgb(98.431373%,73.72549%,3.529412%);fill-opacity:1;" d="M 30.730469 87.265625 L 16.125 87.265625 L 16.125 72.660156 L 30.730469 72.660156 Z M 30.730469 87.265625 "/>
</g>
</svg>
