<?xml version="1.0" encoding="UTF-8"?>
<svg xmlns="http://www.w3.org/2000/svg" xmlns:xlink="http://www.w3.org/1999/xlink" width="144px" height="144px" viewBox="0 0 144 144" version="1.1">
<g id="surface1">
<path style=" stroke:none;fill-rule:nonzero;fill:rgb(91.764706%,10.588235%,13.333333%);fill-opacity:1;" d="M 62.164062 74.757812 L 71.679688 74.757812 L 66.648438 66.664062 L 57.414062 81.296875 L 53.214844 81.296875 L 64.445312 63.71875 C 64.933594 63.007812 65.746094 62.578125 66.648438 62.578125 C 67.523438 62.578125 68.335938 62.992188 68.808594 63.6875 L 80.085938 81.296875 L 75.882812 81.296875 L 73.902344 78.027344 L 64.269531 78.027344 L 62.167969 74.757812 Z M 105.820312 78.027344 L 105.820312 62.753906 L 102.253906 62.753906 L 102.253906 79.523438 C 102.253906 79.980469 102.433594 80.425781 102.773438 80.765625 C 103.113281 81.105469 103.570312 81.296875 104.074219 81.296875 L 120.335938 81.296875 L 122.4375 78.027344 Z M 46.820312 75.289062 C 50.28125 75.289062 53.09375 72.492188 53.09375 69.03125 C 53.09375 65.566406 50.28125 62.753906 46.820312 62.753906 L 31.21875 62.753906 L 31.21875 81.296875 L 34.785156 81.296875 L 34.785156 66.027344 L 46.582031 66.027344 C 48.242188 66.027344 49.574219 67.375 49.574219 69.03125 C 49.574219 70.6875 48.242188 72.035156 46.582031 72.035156 L 36.53125 72.019531 L 47.175781 81.296875 L 52.355469 81.296875 L 45.191406 75.289062 Z M 9.273438 81.296875 C 4.152344 81.296875 0 77.15625 0 72.035156 C 0 66.914062 4.152344 62.757812 9.273438 62.757812 L 20.050781 62.757812 C 25.171875 62.757812 29.320312 66.914062 29.320312 72.035156 C 29.320312 77.15625 25.171875 81.296875 20.050781 81.296875 Z M 19.8125 78.027344 C 23.125 78.027344 25.8125 75.347656 25.8125 72.035156 C 25.8125 68.71875 23.125 66.027344 19.8125 66.027344 L 9.511719 66.027344 C 6.195312 66.027344 3.507812 68.71875 3.507812 72.035156 C 3.507812 75.347656 6.195312 78.027344 9.511719 78.027344 Z M 87.53125 81.296875 C 82.410156 81.296875 78.25 77.15625 78.25 72.035156 C 78.25 66.914062 82.410156 62.757812 87.53125 62.757812 L 100.332031 62.757812 L 98.242188 66.027344 L 87.765625 66.027344 C 84.453125 66.027344 81.757812 68.71875 81.757812 72.035156 C 81.757812 75.347656 84.453125 78.027344 87.765625 78.027344 L 100.625 78.027344 L 98.523438 81.296875 Z M 131.140625 78.027344 C 128.402344 78.027344 126.078125 76.191406 125.371094 73.660156 L 140.613281 73.660156 L 142.710938 70.390625 L 125.371094 70.390625 C 126.078125 67.875 128.402344 66.027344 131.140625 66.027344 L 141.601562 66.027344 L 143.71875 62.753906 L 130.902344 62.753906 C 125.785156 62.753906 121.625 66.914062 121.625 72.035156 C 121.625 77.152344 125.785156 81.296875 130.902344 81.296875 L 141.898438 81.296875 L 144 78.027344 Z M 131.140625 78.027344 "/>
</g>
</svg>
